<?xml version="1.0" encoding="utf-8"?>
<!-- Generator: Adobe Illustrator 19.2.0, SVG Export Plug-In . SVG Version: 6.00 Build 0)  -->
<svg version="1.1" id="Layer_1" xmlns="http://www.w3.org/2000/svg" xmlns:xlink="http://www.w3.org/1999/xlink" x="0px" y="0px"
	 viewBox="0 0 400 329.6" style="enable-background:new 0 0 400 329.6;" xml:space="preserve">
<style type="text/css">
	.st0{fill:#FEFEFE;}
	.st1{fill:#37354D;}
	.st2{fill:#BFC8EE;}
	.st3{fill:#FE5252;}
	.st4{fill:#BFC7ED;}
	.st5{fill:#020202;}
</style>
<g>
	<path class="st0" d="M200.3,0c66.4,0,132.7,0,199.1,0c0.9,0,1.1,0.2,1.1,1.1c0,109.1,0,218.3,0,327.4c0,0.9-0.2,1.1-1.1,1.1
		c-132.7,0-265.4,0-398.1,0c-0.9,0-1.1-0.2-1.1-1.1c0-109.1,0-218.3,0-327.4C0.2,0.2,0.4,0,1.3,0C67.6,0,134,0,200.3,0z M11.7,158.6
		c0,4.2,0.1,8.5,0,12.7c-0.6,30.1,14.4,50.2,39.9,53.7c25,3.5,45.6-6.4,64.7-21c1.5-1.2,2.5-4.4,4.3-3.5c2.4,1.2,2.1,4.5,2,7.1
		c0,0.1,0,0.2,0,0.3c-0.5,11.2-7.5,19.8-12.9,28.6c-6.3,10.2-11,21-15.6,31.9c-2.4,5.7,1,10.9,7.1,11.1c5.6,0.2,11.3-0.3,17-0.3
		c12.6-0.1,25.2,0.1,37.9-0.2c3.6-0.1,7.3-2,6.1-6.1c-2.3-7.7-1.5-15.4-0.6-23c0.6-5.5-0.6-11.9,5.6-15.5c0.5-0.3,1.3-1,1.5,0.2
		c0.7,4.2,1.9,8.4,1.8,12.6c-0.6,25,7.9,47,21.3,67.7c4.6,7.2,9.4,9.9,16.6,7c6.5-2.6,12.6-6.1,18-10.6c4.4-3.7,6.4-8.4,2.1-13.6
		c-2.5-3-4.4-6.2-5.8-9.9c-6.2-16.4-9-33.3-7.4-50.8c0.2-2-1-5.4,2.2-6c3-0.6,4.2,2.5,5.8,4.5c0.2,0.2,0.3,0.5,0.4,0.7
		c7.6,10.4,4.3,22,3.4,33.2c-0.5,5.8,1,6.5,5.9,6c16.5-1.8,33.2,0.5,49.7-1.7c3.5-0.5,8.2-0.3,7.4-5.9c-1.1-6.8-2.1-13.7-4.4-20.2
		c-5.5-15.4-9.2-31.1-10.2-47.4c-0.1-0.9,0.2-1.9,0.2-2.9c1.1,0.5,2.4,0.7,3.2,1.5c6.9,7.9,15.8,12.8,24.8,18
		c15.3,8.8,31.9,8.6,47.3,4.9c18.6-4.4,28.6-20.7,33.8-37.9c5.1-16.8,5.6-34.5,4.8-52.3c-0.8-18.1,1.3-36.4-1-54.4
		c-3-23.4-14.6-42.1-36.8-50.7c-22.4-8.7-44.5-4.6-64.4,9.3c-3.7,2.6-6.9,2.9-11.1,1.1c-5.8-2.4-10.1-7.1-15.6-9.9
		c-17.5-8.9-36.5-11.3-55.7-11.8c-25.3-0.5-47.8,9.3-69.5,21.1c-4.6,2.5-6.7,2.5-11.3-1.1C106.9,21.8,86.6,18.8,65.5,25
		c-21.4,6.3-30.9,24.4-40.1,42.6c-5.8,11.4-4.9,24.2-7.7,36.2C13.5,121.7,13.7,140.2,11.7,158.6z"/>
	<path class="st1" d="M11.7,158.6c1.9-18.3,1.8-36.8,6-54.8c2.8-12,1.9-24.9,7.7-36.2C34.6,49.4,44.2,31.3,65.5,25
		c21.1-6.2,41.3-3.2,58.8,10.4c4.6,3.6,6.7,3.6,11.3,1.1c21.7-11.8,44.2-21.6,69.5-21.1c19.2,0.4,38.2,2.9,55.7,11.8
		c5.5,2.8,9.8,7.5,15.6,9.9c4.2,1.7,7.4,1.4,11.1-1.1c19.9-13.8,42.1-17.9,64.4-9.3c22.2,8.6,33.8,27.3,36.8,50.7
		c2.3,18.1,0.2,36.3,1,54.4c0.8,17.7,0.3,35.5-4.8,52.3c-5.2,17.3-15.2,33.6-33.8,37.9c-15.4,3.6-32,3.8-47.3-4.9
		c-9-5.2-17.8-10.1-24.8-18c-0.7-0.8-2.1-1-3.2-1.5c-0.1,1-0.3,1.9-0.2,2.9c1,16.3,4.7,32,10.2,47.4c2.3,6.4,3.3,13.4,4.4,20.2
		c0.9,5.6-3.8,5.4-7.4,5.9c-16.5,2.2-33.2-0.1-49.7,1.7c-4.9,0.5-6.4-0.2-5.9-6c1-11.1,4.3-22.8-3.4-33.2c-0.2-0.2-0.3-0.5-0.4-0.7
		c-1.6-2-2.8-5-5.8-4.5c-3.3,0.6-2,4-2.2,6c-1.6,17.5,1.2,34.3,7.4,50.8c1.4,3.7,3.3,6.9,5.8,9.9c4.3,5.2,2.3,9.9-2.1,13.6
		c-5.4,4.5-11.5,8-18,10.6c-7.2,2.9-11.9,0.1-16.6-7c-13.3-20.7-21.8-42.7-21.3-67.7c0.1-4.2-1.1-8.4-1.8-12.6
		c-0.2-1.2-1.1-0.4-1.5-0.2c-6.2,3.6-4.9,10-5.6,15.5c-0.9,7.7-1.7,15.3,0.6,23c1.2,4-2.5,6-6.1,6.1c-12.6,0.2-25.2,0.1-37.9,0.2
		c-5.7,0-11.3,0.5-17,0.3c-6.2-0.3-9.5-5.5-7.1-11.1c4.6-10.9,9.3-21.7,15.6-31.9c5.4-8.8,12.3-17.4,12.9-28.6c0-0.1,0-0.2,0-0.3
		c0-2.6,0.4-5.9-2-7.1c-1.8-0.9-2.8,2.3-4.3,3.5c-19.1,14.6-39.7,24.5-64.7,21c-25.5-3.5-40.5-23.6-39.9-53.7
		C11.8,167,11.7,162.8,11.7,158.6z M114.6,52c2.6-3.2,4.3-7.2,9-8.4c2.2-0.6,2.3-2.2-0.2-3.4c-2.9-1.5-5.7-3.3-8.5-5.1
		c-13.2-8.8-27.8-10.7-42.7-7.4C48.4,33,34.5,49.9,28.1,72c-6.4,21.9-9.4,44.8-10.5,67.7c-0.7,14.6-3.4,29.1-0.6,43.9
		c4.3,22.5,20.7,37.1,42.7,37.3c5.2,0,9.7-2.3,14.6-3.4c15.5-3.7,29.5-10.7,42-20.1c5-3.8,14-7.3,9.6-17.2c1.3-1.4,2.6-2.9,3.9-4.3
		c6.9,4.8,13.9,9.5,20.5,14.5c7.5,5.7,14.3,12.2,16.3,21.9c2.5,12,11.1,22.1,8.2,35.8c-2.2,10.2,1.3,20.2,5.1,30.2
		c5.1,13.5,10.9,26.4,19.6,38c1.1,1.5,2.4,2,4.2,1.2c3.7-1.6,7.3-3.4,11.1-4.6c8.2-2.6,11-9.4,6.3-16.6c-3.8-5.8-6.8-11.6-7.3-18.8
		c-0.4-6.3-4.7-8.7-10.9-7.2c-1.9,0.5-4.6,0.8-5.3-1c-0.9-2.5,1.2-4.3,3.6-5.1c1.3-0.4,2.9-0.3,4.3-0.3c1.8,0,3.8,1.6,5.4-0.5
		c1.6-2.1,1.2-4.4,0.2-6.6c-2.3-5.6-6.2-2.1-9.5-1.6c-2,0.3-4,0.7-5-1.7c-0.9-2.2,0.9-3.2,2.4-4.2c2-1.4,4.3-0.7,6.4-0.5
		c3.4,0.4,5.1-1.1,4.9-4.4c-0.2-2.9-2.6-1.6-4.1-1.7c-2.3-0.2-4.7,0.1-7.1,0c-1.5-0.1-3.4-0.6-3.7-2.1c-0.3-1.7,1.6-2.6,3-2.9
		c2.2-0.5,4.5-0.3,6.7-0.7c1.9-0.4,4.4,1,5.5-2c3-8.3,2.9-17.5,8.7-24.9c8.3-10.4,18.9-18.1,28.9-26.5c13.9-11.7,30.7-19,42.4-34.6
		c11.7-15.6,19-32,17.4-50.3c-1.7-20.1-12.9-37.6-27.3-51.5C251,18.4,192.6,11.5,153.6,30.7c-13.1,6.4-25.2,14.1-35.6,24.4
		C116.8,54.1,115.7,53,114.6,52z M306.9,138.2c-1.4-0.7-1.8,0.2-2.4,1.2c-8.7,14.4-19.7,26.7-34,35.8c-2.7,1.7-2.9,3.2-1.3,5.7
		c2.6,4.2,7.2,6.4,10.5,9.9c8.5,8.8,17.7,16.6,29.2,21.3c11.6,4.8,23.5,7.5,36,5.3c14.8-2.7,24.1-13,30.8-25.4
		c7.1-13,7.9-27.4,8.5-42.1c1-23.3,0.9-46.6-0.8-69.8c-1.2-15.9-6.8-30.6-19.1-40.1c-26.4-20.5-54.4-15.6-78.9,2.5
		c-1.1,0.8-1,1.5,0.1,2.3c3.2,2.1,6.7,3.7,8.6,7.3c2,3.8,4.3,7,9.3,4.5c-0.2,0.9-0.7,1.9-0.6,2.8c0.2,7.1-3.3,14.7,2.8,21
		c6.6,6.8,7.2,15.4,6.2,24C310.5,115.6,308.5,126.9,306.9,138.2z M272.1,197c0.9-5.3-4.4-10-9.3-13.9c-4.2-3.3-6.7,2.5-9.8,4.3
		c-0.3,0.2-0.6,0.3-0.8,0.4c-13.2,8-23.6,19-32.3,31.6c-1.5,2.2-2.4,4.9,0.8,6.7c11.4,6.5,16,17.8,12.5,30.6c-0.2,0.9,0.3,2,0.5,3
		c0.6-0.4,1.3-0.7,1.9-1.2c2-1.7,3.9-3.4,7-3.3c9.4,0.3,18.9,0.2,28.3,0.3c2.2,0,5-0.6,6.3,1.4c1.9,2.9,3,6.2,4.6,9.3
		c0.3,0.6,1.3,0.8,2,1.1c0.1,0,0.4-0.3,0.4-0.4c-0.4-3.9,1.2-7.8-0.4-11.8C276.7,237.3,269.8,219.3,272.1,197z M133.3,186
		c-3.2-0.1-1.7,3.1-3.2,4.2c-4.9,3.8-3.5,9.6-3.3,14.2c0.3,9.4-2.5,17.3-7.7,24.8c-8.8,12.7-16.5,25.9-21.6,40.6
		c-0.4,1-2.2,2.3,0.3,2.9c2.5,0.6,4.1-0.6,4.3-2.9c0.4-5,3.5-7.6,7.9-8.6c7.6-1.7,15.3,0.6,22.9,0.5c2,0,3.3,2,6.2-0.2
		c1.8-1.4,5.9-0.3,8.9,0.4c4.6,1,4.9,5,5.3,8.8c0.1,1,1.2,2.6,1.7,2.5c1.3-0.1,0.9-1.6,0.9-2.5c0.2-4.5,0.3-9.1,0.4-13.6
		c0.2-11-0.9-22.4,9.7-30.1c0.3-0.2,0.3-0.9,0.2-1.4c-3.5-19-17.8-29.1-32-39.3C133.9,186.1,133.5,186,133.3,186z M246,271
		c2.9,0.5,3.8-0.7,3.7-2.8c-0.1-3.8-1.9-6.8-5.9-6.9c-3.9-0.2-5,3.1-5,6.3C238.9,273.8,243.9,270.1,246,271z M126.5,266.1
		c-4.2,0.9-5.5,4.8-4.9,7.7c1,5,5.8,1.1,8.7,2.4c1,0.4,2.5-0.3,2.4-1.9C132.5,270.3,131.4,266.8,126.5,266.1z M254.2,267.5
		c0.3,3.8,3.6,3.4,6,3.9c1.5,0.3,3.1-0.5,2.8-2.3c-0.5-3.2,0.3-7.8-4.3-8.1C255.1,260.7,254.9,264.5,254.2,267.5z M115.8,276
		c1.7,0.3,2.8-1.5,2.3-2.9c-0.7-2.3-0.3-6-4.2-6.1c-3.5-0.1-7.1,3.6-6.7,4.9C108.1,274.8,111.9,275.7,115.8,276z M144.9,273.7
		c1.8,0,3.2,0.2,3.1-1.7c-0.2-3.1-2.4-5.4-5-4.7c-3.1,0.9-8.4,2.6-7.1,6.3C138,279.5,142.2,271.3,144.9,273.7z M272.2,261
		c-3,2.3-4.9,5.2-5.1,8.8c0,0.5,1.3,1.6,1.6,1.4c2.7-1.1,5.3-2.3,8-3.6C275.2,265.5,273.7,263.3,272.2,261z"/>
	<path class="st2" d="M117.9,55.1c10.4-10.3,22.5-18,35.6-24.4c39-19.1,97.5-12.2,127.2,16.5c14.5,14,25.6,31.4,27.3,51.5
		c1.6,18.3-5.7,34.7-17.4,50.3c-11.7,15.5-28.5,22.8-42.4,34.6c-10,8.4-20.7,16.1-28.9,26.5c-5.9,7.4-5.7,16.7-8.7,24.9
		c-1.1,3-3.6,1.6-5.5,2c-2.2,0.4-4.5,0.3-6.7,0.7c-1.4,0.3-3.3,1.2-3,2.9c0.2,1.5,2.2,2,3.7,2.1c2.4,0.1,4.7-0.2,7.1,0
		c1.5,0.1,3.9-1.2,4.1,1.7c0.2,3.3-1.5,4.8-4.9,4.4c-2.2-0.3-4.4-1-6.4,0.5c-1.4,1-3.3,2-2.4,4.2c1,2.3,2.9,2,5,1.7
		c3.3-0.5,7.2-4,9.5,1.6c0.9,2.3,1.4,4.5-0.2,6.6c-1.6,2.1-3.6,0.5-5.4,0.5c-1.4,0-3-0.1-4.3,0.3c-2.4,0.8-4.5,2.6-3.6,5.1
		c0.7,1.8,3.4,1.4,5.3,1c6.3-1.5,10.5,0.9,10.9,7.2c0.5,7.2,3.5,13,7.3,18.8c4.7,7.2,1.9,13.9-6.3,16.6c-3.8,1.2-7.4,3-11.1,4.6
		c-1.8,0.8-3.1,0.3-4.2-1.2c-8.7-11.6-14.4-24.5-19.6-38c-3.8-10-7.3-20.1-5.1-30.2c2.9-13.7-5.8-23.9-8.2-35.8
		c-2-9.8-8.8-16.2-16.3-21.9c-6.7-5.1-13.7-9.7-20.5-14.5c-12.2-8.6-19.9-21.1-26.9-33.6c-4.2-7.6-3.5-17.1-2.3-25.9
		c1.4-9.7-2-20,4-29.3c3.3-5.1,3.7-12.6,7.9-16.4C117.5,65.8,117.6,60.8,117.9,55.1z M259.9,130.6c-0.2-8.1-5.3-9.1-10.6-8.8
		c-4.5,0.2-6.2,4.1-6,8.1c0.2,4.8,3.2,7.5,8.2,7.2C256,136.8,259.8,135.2,259.9,130.6z M139,131.3c0.3,3.7,1.8,6.8,5.7,7
		c5.2,0.2,10.4-1,10.4-7.8c0.1-4.5-3.1-6.9-7.3-6.9C143.1,123.6,139.4,125.8,139,131.3z"/>
	<path class="st3" d="M306.9,138.2c1.7-11.3,3.6-22.5,4.9-33.8c1-8.6,0.5-17.2-6.2-24c-6.1-6.3-2.7-13.9-2.8-21
		c0-0.9,0.4-1.9,0.6-2.8c2.5-4.8,7.9-4.2,11.9-5.9c8.7-3.7,18.2-2.2,27.4-1.9c8.2,0.3,13.6,5.5,16.5,11.5
		c8.1,16.7,15.6,33.9,15.3,53.2c-0.2,13.9-0.6,27.8,0.7,41.8c0.9,9.7-4.1,18.9-5.9,28.5c-1.5,7.9-4.7,15-10.2,20.9
		c-6.5,6.9-15.5,7.1-23.9,8.7c-4.1,0.8-6.9-1.8-10.2-3.9c-7.9-5.1-17.5-7.5-24.5-14.1c-4.3-4-8.1-8.5-12.2-12.7
		c-0.9-0.9-2.2-1.3-3.2-2.2c-5.9-4.9-2.8-7.3,1.9-11.1c6.7-5.6,11.3-13.4,15.9-20.9C304.7,145.3,308.3,142.6,306.9,138.2z"/>
	<path class="st3" d="M117.9,55.1c-0.3,5.7-0.5,10.7-5.6,15.4c-4.1,3.8-4.6,11.3-7.9,16.4c-6.1,9.3-2.7,19.5-4,29.3
		c-1.2,8.8-1.9,18.3,2.3,25.9c7,12.6,14.8,25,26.9,33.6c-1.3,1.4-2.6,2.9-3.9,4.3c-1.1,0.5-2.4,0.9-3.3,1.7c-8.8,8-16.8,17-27.9,22
		c-6.1,2.7-11.2,8.5-19.1,6.6c-2.7-0.7-5.6-0.2-8.5,0.1c-8.6,0.9-16.8,1.1-22.9-7.2c-4.8-6.6-7.3-14-7.9-21.6
		c-0.7-9.4,0.7-19,0.9-28.5c0.4-17.1,1.7-34.1,5.9-50.8c3.4-13.5,8-26.4,16.1-37.8c4.3-6,7.3-13.8,15.6-15.5
		c5.6-1.2,11.5-1.3,17.2-1.4c4.6-0.1,9.9-0.8,13.4,2.5c3.1,3,5.9,2.9,9.3,1.9C115.7,53,116.8,54.1,117.9,55.1z"/>
	<path class="st4" d="M114.6,52c-3.4,1-6.2,1.1-9.3-1.9c-3.5-3.3-8.8-2.5-13.4-2.5c-5.8,0.1-11.6,0.3-17.2,1.4
		c-8.3,1.7-11.3,9.5-15.6,15.5C50.9,76,46.3,88.9,42.9,102.4c-4.2,16.7-5.5,33.7-5.9,50.8c-0.2,9.5-1.6,19.1-0.9,28.5
		c0.6,7.6,3.2,15,7.9,21.6c6,8.4,14.3,8.2,22.9,7.2c2.9-0.3,5.8-0.8,8.5-0.1c7.9,1.9,13-3.9,19.1-6.6c11.1-5,19.1-14,27.9-22
		c0.9-0.8,2.2-1.1,3.3-1.7c4.4,9.9-4.5,13.4-9.6,17.2c-12.5,9.4-26.5,16.5-42,20.1c-4.8,1.2-9.3,3.5-14.6,3.4
		c-22.1-0.2-38.4-14.7-42.7-37.3c-2.8-14.8-0.1-29.3,0.6-43.9c1.1-22.9,4.1-45.8,10.5-67.7C34.5,49.9,48.4,33,72.2,27.7
		c15-3.4,29.6-1.4,42.7,7.4c2.7,1.8,5.5,3.6,8.5,5.1c2.5,1.3,2.4,2.9,0.2,3.4C118.8,44.7,117.2,48.8,114.6,52z"/>
	<path class="st4" d="M306.9,138.2c1.4,4.5-2.2,7.1-4.1,10.2c-4.6,7.5-9.1,15.3-15.9,20.9c-4.7,3.9-7.8,6.3-1.9,11.1
		c1,0.8,2.3,1.3,3.2,2.2c4.1,4.2,8,8.7,12.2,12.7c7.1,6.6,16.6,9,24.5,14.1c3.3,2.1,6.1,4.7,10.2,3.9c8.4-1.6,17.5-1.8,23.9-8.7
		c5.5-5.9,8.7-12.9,10.2-20.9c1.8-9.6,6.8-18.8,5.9-28.5c-1.4-14-1-27.9-0.7-41.8c0.3-19.3-7.2-36.4-15.3-53.2
		c-2.9-6-8.3-11.3-16.5-11.5c-9.2-0.3-18.7-1.8-27.4,1.9c-4,1.7-9.4,1.1-11.9,5.9c-5,2.6-7.3-0.6-9.3-4.5c-1.9-3.6-5.4-5.3-8.6-7.3
		c-1.2-0.8-1.3-1.4-0.1-2.3c24.5-18.1,52.5-23,78.9-2.5c12.3,9.5,18,24.2,19.1,40.1c1.7,23.3,1.9,46.5,0.8,69.8
		c-0.7,14.7-1.4,29.2-8.5,42.1c-6.8,12.3-16,22.7-30.8,25.4c-12.5,2.3-24.5-0.5-36-5.3c-11.5-4.7-20.7-12.5-29.2-21.3
		c-3.3-3.5-7.8-5.6-10.5-9.9c-1.6-2.5-1.5-4,1.3-5.7c14.3-9.1,25.3-21.4,34-35.8C305,138.4,305.5,137.5,306.9,138.2z"/>
	<path class="st2" d="M272.1,197c-2.4,22.3,4.6,40.3,11.6,58.3c1.6,4,0,7.9,0.4,11.8c0,0.1-0.4,0.4-0.4,0.4c-0.7-0.3-1.7-0.6-2-1.1
		c-1.6-3.1-2.7-6.5-4.6-9.3c-1.3-2-4.1-1.4-6.3-1.4c-9.4-0.1-18.9-0.1-28.3-0.3c-3.1-0.1-5,1.6-7,3.3c-0.6,0.5-1.3,0.8-1.9,1.2
		c-0.2-1-0.7-2.1-0.5-3c3.5-12.8-1.1-24.1-12.5-30.6c-3.2-1.8-2.3-4.6-0.8-6.7c8.8-12.6,19.1-23.5,32.3-31.6
		c0.3-0.2,0.6-0.3,0.8-0.4c3.2-1.9,5.6-7.7,9.8-4.3C267.8,187,273,191.7,272.1,197z"/>
	<path class="st2" d="M133.3,186c0.2,0.1,0.7,0.1,1,0.3c14.3,10.2,28.6,20.3,32,39.3c0.1,0.4,0.1,1.2-0.2,1.4
		c-10.6,7.7-9.6,19-9.7,30.1c-0.1,4.5-0.2,9.1-0.4,13.6c0,0.9,0.4,2.4-0.9,2.5c-0.5,0-1.6-1.6-1.7-2.5c-0.5-3.8-0.8-7.8-5.3-8.8
		c-3-0.6-7.1-1.8-8.9-0.4c-2.9,2.2-4.2,0.2-6.2,0.2c-7.6,0-15.3-2.3-22.9-0.5c-4.4,1-7.5,3.6-7.9,8.6c-0.2,2.3-1.9,3.6-4.3,2.9
		c-2.5-0.7-0.7-1.9-0.3-2.9c5.2-14.6,12.9-27.9,21.6-40.6c5.1-7.4,7.9-15.4,7.7-24.8c-0.1-4.6-1.5-10.4,3.3-14.2
		C131.6,189.1,130,185.9,133.3,186z"/>
	<path class="st0" d="M246,271c-2.1-0.9-7.1,2.8-7.2-3.4c0-3.1,1.1-6.5,5-6.3c4,0.2,5.8,3.1,5.9,6.9
		C249.8,270.4,248.9,271.5,246,271z"/>
	<path class="st0" d="M126.5,266.1c4.9,0.7,6,4.2,6.3,8.1c0.1,1.6-1.4,2.4-2.4,1.9c-2.9-1.3-7.8,2.6-8.7-2.4
		C121,270.9,122.3,267,126.5,266.1z"/>
	<path class="st0" d="M254.2,267.5c0.6-3,0.8-6.7,4.5-6.5c4.7,0.3,3.9,4.9,4.3,8.1c0.2,1.7-1.3,2.6-2.8,2.3
		C257.8,270.9,254.6,271.2,254.2,267.5z"/>
	<path class="st0" d="M115.8,276c-3.9-0.3-7.7-1.1-8.6-4c-0.4-1.4,3.1-5,6.7-4.9c4,0.1,3.5,3.8,4.2,6.1
		C118.5,274.4,117.5,276.3,115.8,276z"/>
	<path class="st0" d="M144.9,273.7c-2.7-2.4-7,5.8-9-0.1c-1.3-3.6,4.1-5.4,7.1-6.3c2.6-0.8,4.8,1.5,5,4.7
		C148.1,273.9,146.7,273.7,144.9,273.7z"/>
	<path class="st0" d="M272.2,261c1.5,2.3,3,4.5,4.5,6.7c-2.7,1.2-5.3,2.5-8,3.6c-0.3,0.1-1.6-1-1.6-1.4
		C267.3,266.2,269.1,263.4,272.2,261z"/>
	<path class="st5" d="M259.9,130.6c-0.1,4.6-3.9,6.2-8.5,6.5c-4.9,0.3-8-2.4-8.2-7.2c-0.2-3.9,1.5-7.8,6-8.1
		C254.5,121.5,259.7,122.5,259.9,130.6z"/>
	<path class="st5" d="M139,131.3c0.4-5.6,4.1-7.7,8.9-7.7c4.2,0,7.4,2.4,7.3,6.9c-0.1,6.8-5.2,8-10.4,7.8
		C140.8,138.2,139.3,135,139,131.3z"/>
</g>
</svg>
